<svg xmlns="http://www.w3.org/2000/svg" version="1.1" width="440" height="80" viewBox="0 0 440 80"><defs/><path fill="none" stroke="#666666" d="M 20,40 L 420,40" style="stroke-width: 2px" stroke-width="2"/><path fill="none" stroke="#666666" d="M 20,48 L 20,32" style="stroke-width: 2px" stroke-width="2"/><path fill="none" stroke="#666666" d="M 60,48 L 60,32" style="stroke-width: 2px" stroke-width="2"/><path fill="none" stroke="#666666" d="M 100,48 L 100,32" style="stroke-width: 2px" stroke-width="2"/><path fill="none" stroke="#666666" d="M 140,48 L 140,32" style="stroke-width: 2px" stroke-width="2"/><path fill="none" stroke="#666666" d="M 180,48 L 180,32" style="stroke-width: 2px" stroke-width="2"/><path fill="none" stroke="#666666" d="M 220,48 L 220,32" style="stroke-width: 2px" stroke-width="2"/><path fill="none" stroke="#666666" d="M 260,48 L 260,32" style="stroke-width: 2px" stroke-width="2"/><path fill="none" stroke="#666666" d="M 300,48 L 300,32" style="stroke-width: 2px" stroke-width="2"/><path fill="none" stroke="#666666" d="M 340,48 L 340,32" style="stroke-width: 2px" stroke-width="2"/><path fill="none" stroke="#666666" d="M 380,48 L 380,32" style="stroke-width: 2px" stroke-width="2"/><path fill="none" stroke="#666666" d="M 420,48 L 420,32" style="stroke-width: 2px" stroke-width="2"/><ellipse cx="420" cy="40" rx="5" ry="5" fill="#6495ed" stroke="none" style="stroke-width: 2px" stroke-width="2"/><ellipse cx="260" cy="40" rx="5" ry="5" fill="#6495ed" stroke="none" style="stroke-width: 2px" stroke-width="2"/><ellipse cx="180" cy="40" rx="5" ry="5" fill="#6495ed" stroke="none" style="stroke-width: 2px" stroke-width="2"/><ellipse cx="60" cy="40" rx="5" ry="5" fill="#6495ed" stroke="none" style="stroke-width: 2px" stroke-width="2"/></svg>